<svg xmlns="http://www.w3.org/2000/svg" shape-rendering="geometricPrecision" text-rendering="geometricPrecision" image-rendering="optimizeQuality" fill-rule="evenodd" clip-rule="evenodd" viewBox="0 0 461 512.222"><g fill-rule="nonzero"><path fill="#185C37" d="M130.557 512.222H23.115C10.357 512.218.008 501.868.008 489.107L0 248.429l81.101-23.905 72.567 23.905V489.11c-.004 12.758-10.353 23.108-23.115 23.108l.004.004z"/><path fill="#33C481" d="M297.091 0H437.13C450.31 0 461 10.69 461 23.87v280.082c0 13.176-10.69 23.866-23.87 23.866l-140.039.005-27.32-175.01L297.091 0z"/><path fill="#107C41" d="M0 23.87v232.241h153.668v163.913h129.798c13.176-.004 23.866-10.694 23.866-23.874L307.336 0H23.87C10.694 0 .004 10.69.004 23.87H0z"/><path fill="#21A366" d="M153.668 0h153.668v174.158H153.668z"/></g></svg>