<?xml version="1.0" encoding="UTF-8"?>
<svg id="Layer_1" data-name="Layer 1" xmlns="http://www.w3.org/2000/svg" xmlns:xlink="http://www.w3.org/1999/xlink" viewBox="0 0 1275.59 925.39">
  <defs>
    <style>
      .cls-1, .cls-2 {
        fill: #ef9a7e;
      }

      .cls-3 {
        letter-spacing: -.03em;
      }

      .cls-4 {
        fill: #273f5b;
      }

      .cls-5 {
        letter-spacing: .35em;
      }

      .cls-6 {
        fill: #2a3c53;
        font-family: PlayfairDisplay-Black, 'Playfair Display';
        font-size: 171.2px;
        font-weight: 800;
      }

      .cls-2 {
        font-family: Lato-Medium, Lato;
        font-size: 55.3px;
        font-weight: 500;
      }

      .cls-7 {
        letter-spacing: .34em;
      }
    </style>
    <symbol id="P1_-_ISOTIPO" data-name="P1 - ISOTIPO" viewBox="0 0 176.94 169.61">
      <g>
        <path class="cls-4" d="M124.55,84.58c2.89-5.62,5.33-11.45,7.95-17.2,3.45-7.57,6.91-15.14,10.2-22.78,4.51-10.49,9.33-20.84,14.18-31.18,.16-.34,.36-.66,.14-1.21-1.93,.78-3.66,1.91-5.43,2.97-3.87,2.3-7.66,4.74-11.74,6.65-1.94,.91-2.39,.6-2.95-1.49-.79-2.96-.86-3.07,1.79-4.68,8.07-4.91,16.16-9.79,24.31-14.56,3.45-2.02,3.98-1.36,5.09,2.81,.99,3.73,1.85,7.49,2.67,11.25,1.07,4.92,1.98,9.87,2.96,14.8,.07,.36,.6,.62,.38,.98-.43,.73,.61,1.79-.39,2.25-1.47,.68-3.04,1.23-4.7,.84-.35-.08-.62-.6-.77-1.11-1.68-5.51-2.35-11.24-3.74-16.82-.18-.72-.27-1.45-.81-2.14-1.09,1.33-1.42,2.92-2.1,4.33-6.84,14.13-12.86,28.63-19.36,42.92-3.38,7.43-6.7,14.89-10.05,22.34-4.16,9.24-8.37,18.45-12.47,27.72-6.22,14.03-12.37,28.09-18.57,42.13-2,4.54-3.84,9.16-6.16,13.56-1.17,2.22-2.32,2.84-4.75,2.59-1.03-.11-1.71-.67-2.19-1.53-2.09-3.8-3.74-7.79-5.38-11.8-1.24-3.03-2.83-5.92-4.07-8.95-1.44-3.52-3.09-6.94-4.57-10.43-1.5-3.55-3-7.11-4.58-10.63-1.77-3.94-3.52-7.89-5.31-11.83-1.45-3.18-2.96-6.33-4.39-9.51-.69-1.53-1.25-3.12-1.88-4.68-.3-.73-.26-1.17,.6-1.57,5.85-2.73,11.44-5.98,17.34-8.61,4.13-1.84,8.36-3.33,12.78-4.32,.98-.22,1.53-.06,1.97,.94,5.24,11.84,10.79,23.55,15.48,35.63,.18,.46,.29,1.16,.91,1.14,.53-.02,.54-.7,.71-1.11,2.52-5.86,5.06-11.71,7.54-17.58,1.91-4.54,4.25-8.9,6.38-13.34,.36-.76,.64-1.57,.95-2.35,.91-1.37,1.5-2.89,2.04-4.44Z"/>
        <path class="cls-4" d="M39.43,3.8c11.7,0,23.41,.05,35.11-.05,2.1-.02,1.77,1.15,1.86,2.42,.11,1.47-.43,2.02-1.9,1.96-1.86-.08-3.72,.02-5.56,.41-4.89,1.04-7.73,4.8-7.39,9.81,.22,3.29,1.36,6.34,2.64,9.32,5.06,11.76,10.2,23.48,15.3,35.23,.8,1.85,1.5,3.74,2.25,5.62,.22,.56,.33,.92-.51,1.1-4.44,.96-8.56,2.82-12.68,4.68-5.78,2.61-11.18,5.94-16.82,8.81-1.26,.64-1.86,.63-2.49-.79-3.93-8.81-7.98-17.56-11.94-26.36-5.23-11.62-10.09-23.41-15.64-34.88-2.35-4.86-5.54-9.04-10.74-11.23-2.24-.94-4.55-1.66-7.01-1.71-1.09-.02-1.43-.47-1.42-1.56,.03-2.75-.02-2.76,2.79-2.81,.27,0,.53,0,.8,0,11.12,0,22.24,0,33.36,0,0,.01,0,.02,0,.04Z"/>
        <path class="cls-1" d="M124.55,84.58c-.54,1.54-1.14,3.06-2.04,4.44-1.07,.17-1.95-.34-2.86-.79-5.44-2.64-10.83-5.45-16.67-7.09-6.55-1.84-13.14-1.9-19.76,.03-6.11,1.78-11.7,4.64-17.3,7.54-4.4,2.27-8.73,4.73-13.31,6.62-3.49,1.44-7.08,2.79-10.76,3.6-8.5,1.86-16.81,1.31-24.34-3.58-4.25-2.76-7.62-6.41-9.89-11-.4-.8-.94-1.35-1.86-1.58C2.89,82.04,.1,78.84,0,76.23c-.12-3.08,2.25-6.44,5.13-7.58,3.45-1.38,6.8,.42,8.78,3.05,1.81,2.4,1.84,5.69-.15,8.3-.85,1.12-.71,1.91-.11,3,4.07,7.44,10.53,10.68,18.8,10.97,7.24,.26,13.82-2.08,20.2-5.06,6.59-3.08,12.97-6.6,19.57-9.67,3.88-1.81,7.84-3.6,12.06-4.51,6.65-1.44,13.27-1.34,19.83,.67,7.2,2.21,13.75,5.85,20.44,9.18Z"/>
        <path class="cls-1" d="M134.42,91.37c-.74,0-1.49,.03-2.23,0-1.61-.09-1.96-.55-1.69-2.13,.35-2.02,1.72-3.14,3.72-3.36,7.75-.84,15.18-2.53,21.01-8.28,2.78-2.74,5.18-5.74,7.01-9.19,.52-.97,.29-1.92-.14-2.9-1.45-3.35-.98-6.16,1.35-8.48,2.48-2.47,5.96-3.19,9.07-1.88,4.87,2.06,5.93,8.44,2.03,12.06-1.6,1.48-3.35,2.6-5.61,2.66-.73,.02-1.09,.5-1.42,1.1-5.22,9.47-12.83,16.18-23.19,19.39-3.14,.97-6.58,.98-9.92,1.02Z"/>
      </g>
    </symbol>
  </defs>
  <use width="176.94" height="169.61" transform="translate(276.23) scale(4.09)" xlink:href="#P1_-_ISOTIPO"/>
  <text class="cls-6" transform="translate(2.74 851.63)"><tspan class="cls-3" x="0" y="0">V</tspan><tspan x="113.5" y="0">irginia Campo</tspan></text>
  <text class="cls-2" transform="translate(353.79 910.34)"><tspan class="cls-5" x="0" y="0">DISEÑO GRAFI</tspan><tspan class="cls-7" x="613.9" y="0">C</tspan><tspan class="cls-5" x="669.45" y="0">O</tspan></text>
</svg>